# xmcd CD database file
#
# Track frame offsets:
#	150
#	18445
#	37885
#	55407
#	75765
#	98070
#	119055
#	138632
#	154140
#	178875
#	201330
#	223450
#
# Disc length: 3179 seconds
#
# Revision: 3
# Processed by: cddbd v1.5.1PL0 Copyright (c) Steve Scherf et al.
# Submitted via: CDex 1.51
#
DISCID=ad0c690c
DTITLE=LEO GANDELMAN - PÉROLAS NEGRAS
DYEAR=1996
DGENRE=Jazz
TTITLE0=MAS QUE NADA
TTITLE1=ME DEIXA EM PAZ
TTITLE2=AS ROSAS NÃO FALAM
TTITLE3=NANÃ 
TTITLE4=OVERJOYED
TTITLE5=MR. FUNK SAMBA
TTITLE6=FALTANDO UM PEDAÇO
TTITLE7=LAMENTOS
TTITLE8=CLUB DA ESQUINA Nº 2
TTITLE9=TODA MENINA BAIANA
TTITLE10=CHORO NEGRO
TTITLE11=PÉROLA NEGRA
EXTD=Ótimo Cd do Leo Gandelman YEAR: 1996
EXTT0=
EXTT1=com Luiz Melodia\n
EXTT2=
EXTT3=
EXTT4=
EXTT5=
EXTT6=com Zizi Possi\n
EXTT7=
EXTT8=
EXTT9=com Paulinho da Viola\n
EXTT10=
EXTT11=
PLAYORDER=
